<svg xmlns="http://www.w3.org/2000/svg" width="1400" height="1120" viewBox="0 0 1400 1120">
<rect x="0" y="0" width="1400" height="1120" fill="#f7f6f0" stroke="none" stroke-width="1"/>
<text x="55" y="52" font-family="Helvetica,Arial,sans-serif" font-size="16" fill="#6c7e7b" text-anchor="start" font-weight="400">H O M E S   /   0 4</text>
<text x="55" y="105" font-family="Helvetica,Arial,sans-serif" font-size="40" fill="#253b40" text-anchor="start" font-weight="700">A roof with real volume</text>
<text x="55" y="141" font-family="Helvetica,Arial,sans-serif" font-size="17" fill="#6c7e7b" text-anchor="start" font-weight="400">Section A-A at Y=32 ft / X-Z coordinates in feet / equal horizontal and vertical scale</text>
<text x="1345" y="1090" font-family="Helvetica,Arial,sans-serif" font-size="13" fill="#6c7e7b" text-anchor="end" font-weight="400">COASTAL HOUSE   /   10</text>
<text x="55" y="1090" font-family="Helvetica,Arial,sans-serif" font-size="12" fill="#6c7e7b" text-anchor="start" font-weight="400">CONCEPT ONLY  /  Original design: Homes project contributors  /  CC BY 4.0</text>
<text x="80" y="210" font-family="Helvetica,Arial,sans-serif" font-size="19" fill="#253b40" text-anchor="start" font-weight="700">LIVING / DINING PAVILION</text>
<text x="80" y="242" font-family="Helvetica,Arial,sans-serif" font-size="17" fill="#6c7e7b" text-anchor="start" font-weight="400">3:12 roof / 14.5 ft bearing / 20 ft ridge</text>
<text x="815" y="210" font-family="Helvetica,Arial,sans-serif" font-size="19" fill="#253b40" text-anchor="start" font-weight="700">LOWER KITCHEN WING</text>
<text x="815" y="242" font-family="Helvetica,Arial,sans-serif" font-size="17" fill="#6c7e7b" text-anchor="start" font-weight="400">1:12 east fall / 10.45 ft flat ceiling</text>
<text x="80" y="283" font-family="Helvetica,Arial,sans-serif" font-size="16" fill="#6c7e7b" text-anchor="start" font-weight="400">Bronze-gray standing-seam metal above warm mineral ceilings; exposed driftwood matches the terrace timber.</text>
<polygon points="798.0,551.5 1189.5,584.125 1189.5,588.185 798.0,555.56" fill="#666963" stroke="#253b40" stroke-width="1"/>
<polygon points="116.5,540.625 479.0,450.0 479.0,454.06 116.5,544.685" fill="#666963" stroke="#253b40" stroke-width="1"/>
<polygon points="479.0,450.0 841.5,540.625 841.5,544.685 479.0,454.06" fill="#666963" stroke="#253b40" stroke-width="1"/>
<polygon points="160.0,538.74 479.0,458.99 479.0,460.15 160.0,539.9" fill="#e8dfd1" stroke="#253b40" stroke-width="1"/>
<polygon points="479.0,458.99 798.0,538.74 798.0,539.9 479.0,460.15" fill="#e8dfd1" stroke="#253b40" stroke-width="1"/>
<polygon points="798.0,587.315 1146.0,587.315 1146.0,588.475 798.0,588.475" fill="#e8dfd1" stroke="#253b40" stroke-width="1"/>
<polygon points="157.1,740.0 162.9,740.0 162.9,533.81 157.1,533.81" fill="#ede9df" stroke="#253b40" stroke-width="1"/>
<polygon points="796.26,587.75 799.74,587.75 799.74,533.81 796.26,533.81" fill="#ede9df" stroke="#253b40" stroke-width="1"/>
<polygon points="1143.1,740.0 1148.9,740.0 1148.9,584.56 1143.1,584.56" fill="#ede9df" stroke="#253b40" stroke-width="1"/>
<line x1="160.0" y1="740.0" x2="1146.0" y2="740.0" stroke="#253b40" stroke-width="3"/>
<polygon points="165.20621253886495,538.5984468652837 477.68121253886494,460.47969686528376 480.31878746113506,471.02999655436423 167.84378746113507,549.1487465543643" fill="#b1a18c" stroke="#253b40" stroke-width="1"/>
<polygon points="480.31878746113506,460.47969686528376 792.793787461135,538.5984468652837 790.1562125388649,549.1487465543643 477.68121253886494,471.02999655436423" fill="#b1a18c" stroke="#253b40" stroke-width="1"/>
<polygon points="162.175,740.0 170.875,740.0 170.875,549.14375 162.175,549.14375" fill="#b1a18c" stroke="#253b40" stroke-width="1"/>
<polygon points="787.125,740.0 795.8249999999999,740.0 795.8249999999999,549.14375 787.125,549.14375" fill="#b1a18c" stroke="#253b40" stroke-width="1"/>
<polygon points="474.65,473.2 483.35,473.2 483.35,460.15 474.65,460.15" fill="#b1a18c" stroke="#253b40" stroke-width="1"/>
<line x1="102.0" y1="450.0" x2="106.0" y2="450.0" stroke="#6c7e7b" stroke-width="0.65"/>
<line x1="109.0" y1="450.0" x2="113.0" y2="450.0" stroke="#6c7e7b" stroke-width="0.65"/>
<line x1="116.0" y1="450.0" x2="120.0" y2="450.0" stroke="#6c7e7b" stroke-width="0.65"/>
<line x1="123.0" y1="450.0" x2="127.0" y2="450.0" stroke="#6c7e7b" stroke-width="0.65"/>
<line x1="130.0" y1="450.0" x2="134.0" y2="450.0" stroke="#6c7e7b" stroke-width="0.65"/>
<line x1="137.0" y1="450.0" x2="141.0" y2="450.0" stroke="#6c7e7b" stroke-width="0.65"/>
<line x1="144.0" y1="450.0" x2="148.0" y2="450.0" stroke="#6c7e7b" stroke-width="0.65"/>
<line x1="151.0" y1="450.0" x2="155.0" y2="450.0" stroke="#6c7e7b" stroke-width="0.65"/>
<line x1="158.0" y1="450.0" x2="160.0" y2="450.0" stroke="#6c7e7b" stroke-width="0.65"/>
<line x1="102.0" y1="529.75" x2="106.0" y2="529.75" stroke="#6c7e7b" stroke-width="0.65"/>
<line x1="109.0" y1="529.75" x2="113.0" y2="529.75" stroke="#6c7e7b" stroke-width="0.65"/>
<line x1="116.0" y1="529.75" x2="120.0" y2="529.75" stroke="#6c7e7b" stroke-width="0.65"/>
<line x1="123.0" y1="529.75" x2="127.0" y2="529.75" stroke="#6c7e7b" stroke-width="0.65"/>
<line x1="130.0" y1="529.75" x2="134.0" y2="529.75" stroke="#6c7e7b" stroke-width="0.65"/>
<line x1="137.0" y1="529.75" x2="141.0" y2="529.75" stroke="#6c7e7b" stroke-width="0.65"/>
<line x1="144.0" y1="529.75" x2="148.0" y2="529.75" stroke="#6c7e7b" stroke-width="0.65"/>
<line x1="151.0" y1="529.75" x2="155.0" y2="529.75" stroke="#6c7e7b" stroke-width="0.65"/>
<line x1="158.0" y1="529.75" x2="160.0" y2="529.75" stroke="#6c7e7b" stroke-width="0.65"/>
<line x1="51.25" y1="740.0" x2="51.25" y2="529.75" stroke="#6c7e7b" stroke-width="1"/>
<line x1="44.25" y1="740.0" x2="58.25" y2="740.0" stroke="#6c7e7b" stroke-width="1"/>
<line x1="44.25" y1="529.75" x2="58.25" y2="529.75" stroke="#6c7e7b" stroke-width="1"/>
<text x="63.25" y="634.875" font-family="Helvetica,Arial,sans-serif" font-size="16" fill="#253b40" text-anchor="start" font-weight="400">14.5 ft</text>
<line x1="1262.0" y1="740.0" x2="1262.0" y2="450.0" stroke="#6c7e7b" stroke-width="1"/>
<line x1="1255.0" y1="740.0" x2="1269.0" y2="740.0" stroke="#6c7e7b" stroke-width="1"/>
<line x1="1255.0" y1="450.0" x2="1269.0" y2="450.0" stroke="#6c7e7b" stroke-width="1"/>
<text x="1274.0" y="595.0" font-family="Helvetica,Arial,sans-serif" font-size="16" fill="#253b40" text-anchor="start" font-weight="400">20 ft ridge</text>
<line x1="160.0" y1="783.5" x2="798.0" y2="783.5" stroke="#6c7e7b" stroke-width="1"/>
<line x1="160.0" y1="776.5" x2="160.0" y2="790.5" stroke="#6c7e7b" stroke-width="1"/>
<line x1="798.0" y1="776.5" x2="798.0" y2="790.5" stroke="#6c7e7b" stroke-width="1"/>
<text x="479.0" y="774.5" font-family="Helvetica,Arial,sans-serif" font-size="16" fill="#253b40" text-anchor="middle" font-weight="400">44 ft pavilion</text>
<line x1="798.0" y1="783.5" x2="1146.0" y2="783.5" stroke="#6c7e7b" stroke-width="1"/>
<line x1="798.0" y1="776.5" x2="798.0" y2="790.5" stroke="#6c7e7b" stroke-width="1"/>
<line x1="1146.0" y1="776.5" x2="1146.0" y2="790.5" stroke="#6c7e7b" stroke-width="1"/>
<text x="972.0" y="774.5" font-family="Helvetica,Arial,sans-serif" font-size="16" fill="#253b40" text-anchor="middle" font-weight="400">24 ft kitchen wing</text>
<text x="479.0" y="426.0" font-family="Helvetica,Arial,sans-serif" font-size="16" fill="#253b40" text-anchor="middle" font-weight="400">Ridge top +20 ft</text>
<text x="479.0" y="566.0" font-family="Helvetica,Arial,sans-serif" font-size="14" fill="#6c7e7b" text-anchor="middle" font-weight="400">Vault lining at ridge +19.3 ft</text>
<text x="479.0" y="587.75" font-family="Helvetica,Arial,sans-serif" font-size="14" fill="#6c7e7b" text-anchor="middle" font-weight="400">Ridge beam underside +18.4 ft</text>
<text x="972.0" y="610.475" font-family="Helvetica,Arial,sans-serif" font-size="13" fill="#6c7e7b" text-anchor="middle" font-weight="400">Ceiling +10.45 ft</text>
<text x="464.5" y="660.25" font-family="Helvetica,Arial,sans-serif" font-size="19" fill="#253b40" text-anchor="middle" font-weight="400">GENUINE OPEN VAULT</text>
<text x="464.5" y="687.8" font-family="Helvetica,Arial,sans-serif" font-size="14" fill="#6c7e7b" text-anchor="middle" font-weight="400">No continuous flat ceiling above this room</text>
<text x="972.0" y="660.25" font-family="Helvetica,Arial,sans-serif" font-size="19" fill="#253b40" text-anchor="middle" font-weight="400">KITCHEN</text>
<text x="972.0" y="687.8" font-family="Helvetica,Arial,sans-serif" font-size="14" fill="#6c7e7b" text-anchor="middle" font-weight="400">Flat ceiling retained</text>
<text x="1146.0" y="764.0" font-family="Helvetica,Arial,sans-serif" font-size="12" fill="#6c7e7b" text-anchor="end" font-weight="400">Floor datum +0.00 ft</text>
<text x="80" y="845" font-family="Helvetica,Arial,sans-serif" font-size="18" fill="#253b40" text-anchor="start" font-weight="700">MEASURED CONCEPT GEOMETRY</text>
<text x="80" y="878" font-family="Helvetica,Arial,sans-serif" font-size="16" fill="#6c7e7b" text-anchor="start" font-weight="400">Rafter depth 9 in / ridge beam 7.2 x 10.8 in.</text>
<text x="80" y="909" font-family="Helvetica,Arial,sans-serif" font-size="16" fill="#6c7e7b" text-anchor="start" font-weight="400">Frame drawn at the actual middle frame station; no furniture or room layout is changed by this diagram.</text>
<text x="80" y="940" font-family="Helvetica,Arial,sans-serif" font-size="16" fill="#6c7e7b" text-anchor="start" font-weight="400">Roof-to-ceiling reserve and finish thicknesses are modeled allowances, not a resolved thermal assembly.</text>
<text x="80" y="979" font-family="Helvetica,Arial,sans-serif" font-size="15" fill="#6c7e7b" text-anchor="start" font-weight="400">Spans, engineered cores, bearings, foundations, fixings, uplift and condensation control remain unengineered.</text>
<text x="80" y="1007" font-family="Helvetica,Arial,sans-serif" font-size="15" fill="#6c7e7b" text-anchor="start" font-weight="400">Section excludes the front bedroom wing and rear pergola, which lie outside this Y=32 ft cut.</text>
</svg>