<svg xmlns="http://www.w3.org/2000/svg" width="1080" height="1060" viewBox="0 0 1080 1060">
<rect x="0" y="0" width="1080" height="1060" fill="#f7f6f0" stroke="none" stroke-width="1"/>
<text x="55" y="52" font-family="Helvetica,Arial,sans-serif" font-size="16" fill="#6c7e7b" text-anchor="start" font-weight="400">H O M E S   /   0 4</text>
<text x="55" y="105" font-family="Helvetica,Arial,sans-serif" font-size="40" fill="#253b40" text-anchor="start" font-weight="700">Arrival and roof plan</text>
<text x="55" y="141" font-family="Helvetica,Arial,sans-serif" font-size="17" fill="#6c7e7b" text-anchor="start" font-weight="400">Raised pavilion, lower bedroom/kitchen wings and directional roof fall / no surveyed parcel</text>
<text x="1025" y="1030" font-family="Helvetica,Arial,sans-serif" font-size="13" fill="#6c7e7b" text-anchor="end" font-weight="400">COASTAL HOUSE   /   11</text>
<text x="55" y="1030" font-family="Helvetica,Arial,sans-serif" font-size="12" fill="#6c7e7b" text-anchor="start" font-weight="400">CONCEPT ONLY  /  Original design: Homes project contributors  /  CC BY 4.0</text>
<rect x="207.0" y="302.6" width="387.6" height="228.0" fill="#ede9df" stroke="#253b40" stroke-width="1"/>
<rect x="623.1" y="547.7" width="148.20000000000002" height="136.8" fill="#b1a18c" stroke="#253b40" stroke-width="1"/>
<rect x="623.1" y="684.5" width="148.20000000000002" height="102.60000000000001" fill="#ccccbf" stroke="#253b40" stroke-width="1"/>
<rect x="150.0" y="787.1" width="684.0" height="125.4" fill="#8f9996" stroke="#253b40" stroke-width="1"/>
<rect x="303.9" y="530.6" width="34.2" height="256.5" fill="#ffffff" stroke="#253b40" stroke-width="1"/>
<rect x="303.9" y="532.0250000000001" width="393.3" height="22.8" fill="#ffffff" stroke="#253b40" stroke-width="1"/>
<rect x="189.9" y="200.0" width="421.8" height="102.60000000000001" fill="#ede9df" stroke="#b1a18c" stroke-width="0.7"/>
<rect x="258.3" y="211.4" width="182.4" height="86.35499999999999" fill="none" stroke="#b1a18c" stroke-width="0.7"/>
<line x1="258.3" y1="297.755" x2="258.3" y2="211.4" stroke="#c9b99f" stroke-width="0.7"/>
<line x1="284.3571428571429" y1="297.755" x2="284.3571428571429" y2="211.4" stroke="#c9b99f" stroke-width="0.7"/>
<line x1="310.4142857142857" y1="297.755" x2="310.4142857142857" y2="211.4" stroke="#c9b99f" stroke-width="0.7"/>
<line x1="336.4714285714286" y1="297.755" x2="336.4714285714286" y2="211.4" stroke="#c9b99f" stroke-width="0.7"/>
<line x1="362.52857142857147" y1="297.755" x2="362.52857142857147" y2="211.4" stroke="#c9b99f" stroke-width="0.7"/>
<line x1="388.5857142857143" y1="297.755" x2="388.5857142857143" y2="211.4" stroke="#c9b99f" stroke-width="0.7"/>
<line x1="414.64285714285717" y1="297.755" x2="414.64285714285717" y2="211.4" stroke="#c9b99f" stroke-width="0.7"/>
<line x1="440.7" y1="297.755" x2="440.7" y2="211.4" stroke="#c9b99f" stroke-width="0.7"/>
<line x1="258.3" y1="297.755" x2="440.7" y2="297.755" stroke="#253b40" stroke-width="1.6"/>
<rect x="256.59000000000003" y="209.68999999999997" width="3.42" height="3.42" fill="#253b40" stroke="#253b40" stroke-width="0.7"/>
<rect x="438.99" y="209.68999999999997" width="3.42" height="3.42" fill="#253b40" stroke="#253b40" stroke-width="0.7"/>
<rect x="298.20000000000005" y="519.2" width="68.4" height="51.300000000000004" fill="#d2bfa4" stroke="#b1a18c" stroke-width="0.7"/>
<rect x="299.34000000000003" y="565.94" width="2.85" height="2.85" fill="#253b40" stroke="#253b40" stroke-width="0.7"/>
<rect x="362.61" y="565.94" width="2.85" height="2.85" fill="#253b40" stroke="#253b40" stroke-width="0.7"/>
<circle cx="255.45" cy="647.45" r="26.790000000000003" fill="#bec6aa" stroke="#869675" stroke-width="0.6"/>
<circle cx="486.3" cy="644.6" r="25.650000000000002" fill="#bec6aa" stroke="#869675" stroke-width="0.6"/>
<circle cx="264.0" cy="713.0" r="17.1" fill="#bec6aa" stroke="#869675" stroke-width="0.6"/>
<circle cx="435.0" cy="713.0" r="28.5" fill="#bec6aa" stroke="#869675" stroke-width="0.6"/>
<circle cx="264.0" cy="599.0" r="14.25" fill="#bec6aa" stroke="#869675" stroke-width="0.6"/>
<circle cx="395.1" cy="599.0" r="15.959999999999999" fill="#bec6aa" stroke="#869675" stroke-width="0.6"/>
<text x="349.5" y="189.74" font-family="Helvetica,Arial,sans-serif" font-size="12" fill="#253b40" text-anchor="middle" font-weight="400">ATTACHED PERGOLA / SLATTED SHADE</text>
<text x="332.4" y="567.08" font-family="Helvetica,Arial,sans-serif" font-size="10" fill="#253b40" text-anchor="middle" font-weight="400">PORCH</text>
<text x="457.8" y="616.1" font-family="Helvetica,Arial,sans-serif" font-size="12" fill="#6c7e7b" text-anchor="middle" font-weight="400">ENTRY GARDEN</text>
<rect x="195.6" y="416.6" width="410.40000000000003" height="135.375" fill="#d4d1c7" stroke="#666963" stroke-width="0.8"/>
<rect x="457.8" y="285.5" width="153.9" height="131.1" fill="#c8cbc5" stroke="#666963" stroke-width="0.8"/>
<rect x="189.9" y="285.5" width="285.0" height="142.5" fill="#e2ddd2" stroke="#666963" stroke-width="0.8"/>
<line x1="332.4" y1="416.6" x2="332.4" y2="302.6" stroke="#253b40" stroke-width="1.6"/>
<line x1="332.4" y1="428.0" x2="332.4" y2="425.0" stroke="#6c7e7b" stroke-width="0.8"/>
<line x1="332.4" y1="423.0" x2="332.4" y2="420.0" stroke="#6c7e7b" stroke-width="0.8"/>
<line x1="332.4" y1="418.0" x2="332.4" y2="416.6" stroke="#6c7e7b" stroke-width="0.8"/>
<line x1="332.4" y1="302.6" x2="332.4" y2="299.6" stroke="#6c7e7b" stroke-width="0.8"/>
<line x1="332.4" y1="297.6" x2="332.4" y2="294.6" stroke="#6c7e7b" stroke-width="0.8"/>
<line x1="332.4" y1="292.6" x2="332.4" y2="289.6" stroke="#6c7e7b" stroke-width="0.8"/>
<line x1="332.4" y1="287.6" x2="332.4" y2="285.5" stroke="#6c7e7b" stroke-width="0.8"/>
<line x1="309.6" y1="359.6" x2="224.10000000000002" y2="359.6" stroke="#58939b" stroke-width="1"/>
<line x1="224.10000000000002" y1="359.6" x2="230.10000000000002" y2="356.6" stroke="#58939b" stroke-width="1"/>
<line x1="224.10000000000002" y1="359.6" x2="230.10000000000002" y2="362.6" stroke="#58939b" stroke-width="1"/>
<line x1="355.20000000000005" y1="359.6" x2="440.7" y2="359.6" stroke="#58939b" stroke-width="1"/>
<line x1="440.7" y1="359.6" x2="434.7" y2="362.6" stroke="#58939b" stroke-width="1"/>
<line x1="440.7" y1="359.6" x2="434.7" y2="356.6" stroke="#58939b" stroke-width="1"/>
<line x1="264.0" y1="450.8" x2="264.0" y2="513.5" stroke="#58939b" stroke-width="1"/>
<line x1="264.0" y1="513.5" x2="261.0" y2="507.5" stroke="#58939b" stroke-width="1"/>
<line x1="264.0" y1="513.5" x2="267.0" y2="507.5" stroke="#58939b" stroke-width="1"/>
<line x1="509.1" y1="450.8" x2="509.1" y2="513.5" stroke="#58939b" stroke-width="1"/>
<line x1="509.1" y1="513.5" x2="506.1" y2="507.5" stroke="#58939b" stroke-width="1"/>
<line x1="509.1" y1="513.5" x2="512.1" y2="507.5" stroke="#58939b" stroke-width="1"/>
<line x1="497.7" y1="353.9" x2="588.9000000000001" y2="353.9" stroke="#58939b" stroke-width="1"/>
<line x1="588.9000000000001" y1="353.9" x2="582.9000000000001" y2="356.9" stroke="#58939b" stroke-width="1"/>
<line x1="588.9000000000001" y1="353.9" x2="582.9000000000001" y2="350.9" stroke="#58939b" stroke-width="1"/>
<text x="264.0" y="388.1" font-family="Helvetica,Arial,sans-serif" font-size="11" fill="#253b40" text-anchor="middle" font-weight="400">RAISED</text>
<text x="264.0" y="402.35" font-family="Helvetica,Arial,sans-serif" font-size="11" fill="#253b40" text-anchor="middle" font-weight="400">PAVILION</text>
<text x="275.4" y="322.55" font-family="Helvetica,Arial,sans-serif" font-size="12" fill="#253b40" text-anchor="middle" font-weight="400">3:12</text>
<text x="389.4" y="322.55" font-family="Helvetica,Arial,sans-serif" font-size="12" fill="#253b40" text-anchor="middle" font-weight="400">3:12</text>
<text x="531.9000000000001" y="322.55" font-family="Helvetica,Arial,sans-serif" font-size="11" fill="#253b40" text-anchor="middle" font-weight="400">KITCHEN 1:12</text>
<text x="400.8" y="459.35" font-family="Helvetica,Arial,sans-serif" font-size="12" fill="#253b40" text-anchor="middle" font-weight="400">FRONT WING 1:12 SOUTH</text>
<text x="339.24" y="399.5" font-family="Helvetica,Arial,sans-serif" font-size="9" fill="#6c7e7b" text-anchor="start" font-weight="400">RIDGE</text>
<text x="400.8" y="513.5" font-family="Helvetica,Arial,sans-serif" font-size="13" fill="#253b40" text-anchor="middle" font-weight="400">BEDROOM / ENTRY WING</text>
<rect x="642.1949999999999" y="567.6500000000001" width="35.91" height="91.2" fill="#e8ece9" stroke="#253b40" stroke-width="1"/>
<rect x="716.295" y="567.6500000000001" width="35.91" height="91.2" fill="#e8ece9" stroke="#253b40" stroke-width="1"/>
<text x="697.2" y="701.6" font-family="Helvetica,Arial,sans-serif" font-size="16" fill="#253b40" text-anchor="middle" font-weight="400">26 x 24 ft carport</text>
<text x="697.2" y="724.4" font-family="Helvetica,Arial,sans-serif" font-size="14" fill="#6c7e7b" text-anchor="middle" font-weight="400">1:12 mono-pitch</text>
<text x="326.70000000000005" y="661.7" font-family="Helvetica,Arial,sans-serif" font-size="14" fill="#253b40" text-anchor="start" font-weight="400">6 ft walk</text>
<text x="486.3" y="861.2" font-family="Helvetica,Arial,sans-serif" font-size="20" fill="#ffffff" text-anchor="middle" font-weight="400">ILLUSTRATIVE FRONT ROAD</text>
<text x="90" y="953" font-family="Helvetica,Arial,sans-serif" font-size="18" fill="#253b40" text-anchor="start" font-weight="400">Road width 22 ft / driveway 26 ft / rear parking crosswalk 4 ft.</text>
<text x="90" y="985" font-family="Helvetica,Arial,sans-serif" font-size="15" fill="#6c7e7b" text-anchor="start" font-weight="400">Arrows show roof fall only; gutters, capacities and lawful outfall need site-specific design.</text>
<text x="90" y="1011" font-family="Helvetica,Arial,sans-serif" font-size="14" fill="#6c7e7b" text-anchor="start" font-weight="400">No survey, setbacks, finished grades, structural approval or vehicle turning study is supplied.</text>
</svg>