<svg xmlns="http://www.w3.org/2000/svg" width="1100" height="1100" viewBox="0 0 1100 1100">
<rect x="0" y="0" width="1100" height="1100" fill="#f7f5ee" stroke="none" stroke-width="1"/>
<text x="80" y="65" font-family="Helvetica,Arial,sans-serif" font-size="20" fill="#657671" text-anchor="start" font-weight="400">GARAGE LOFT 03</text>
<text x="80" y="120" font-family="Helvetica,Arial,sans-serif" font-size="43" fill="#253b38" text-anchor="start" font-weight="700">Ground / four-car pit parking</text>
<text x="80" y="163" font-family="Helvetica,Arial,sans-serif" font-size="21" fill="#657671" text-anchor="start" font-weight="400">Dimensioned concept / not for construction</text>
<rect x="150" y="316" width="828" height="644" fill="#e8e6dd" stroke="#253b38" stroke-width="2"/>
<rect x="150" y="316" width="11.5" height="644" fill="#253b38" stroke="none" stroke-width="1"/>
<rect x="966.5" y="316" width="11.5" height="644" fill="#253b38" stroke="none" stroke-width="1"/>
<rect x="161.5" y="316" width="805.0" height="11.5" fill="#253b38" stroke="none" stroke-width="1"/>
<line x1="150" y1="270" x2="978" y2="270" stroke="#657671" stroke-width="1"/>
<line x1="150" y1="276.9" x2="150" y2="263.1" stroke="#657671" stroke-width="1"/>
<line x1="978" y1="276.9" x2="978" y2="263.1" stroke="#657671" stroke-width="1"/>
<text x="564" y="257.35" font-family="Helvetica,Arial,sans-serif" font-size="20" fill="#253b38" text-anchor="middle" font-weight="700">36&#x27;-0&quot;</text>
<line x1="117.80000000000001" y1="960" x2="117.80000000000001" y2="316" stroke="#657671" stroke-width="1"/>
<text x="94.80000000000001" y="638" font-family="Helvetica,Arial,sans-serif" font-size="18" fill="#253b38" text-anchor="middle" font-weight="400">28&#x27;</text>
<rect x="794" y="534.5" width="172.5" height="345.0" fill="#ebe3d4" stroke="#657671" stroke-width="1"/>
<line x1="803.1999999999999" y1="879.5" x2="876.8000000000001" y2="879.5" stroke="#657671" stroke-width="1"/>
<line x1="886" y1="879.5" x2="959.6" y2="879.5" stroke="#657671" stroke-width="1"/>
<line x1="803.1999999999999" y1="858.4166666666666" x2="876.8000000000001" y2="858.4166666666666" stroke="#657671" stroke-width="1"/>
<line x1="886" y1="858.4166666666666" x2="959.6" y2="858.4166666666666" stroke="#657671" stroke-width="1"/>
<line x1="803.1999999999999" y1="837.3333333333334" x2="876.8000000000001" y2="837.3333333333334" stroke="#657671" stroke-width="1"/>
<line x1="886" y1="837.3333333333334" x2="959.6" y2="837.3333333333334" stroke="#657671" stroke-width="1"/>
<line x1="803.1999999999999" y1="816.25" x2="876.8000000000001" y2="816.25" stroke="#657671" stroke-width="1"/>
<line x1="886" y1="816.25" x2="959.6" y2="816.25" stroke="#657671" stroke-width="1"/>
<line x1="803.1999999999999" y1="795.1666666666667" x2="876.8000000000001" y2="795.1666666666667" stroke="#657671" stroke-width="1"/>
<line x1="886" y1="795.1666666666667" x2="959.6" y2="795.1666666666667" stroke="#657671" stroke-width="1"/>
<line x1="803.1999999999999" y1="774.0833333333334" x2="876.8000000000001" y2="774.0833333333334" stroke="#657671" stroke-width="1"/>
<line x1="886" y1="774.0833333333334" x2="959.6" y2="774.0833333333334" stroke="#657671" stroke-width="1"/>
<line x1="803.1999999999999" y1="753.0" x2="876.8000000000001" y2="753.0" stroke="#657671" stroke-width="1"/>
<line x1="886" y1="753.0" x2="959.6" y2="753.0" stroke="#657671" stroke-width="1"/>
<line x1="803.1999999999999" y1="731.9166666666667" x2="876.8000000000001" y2="731.9166666666667" stroke="#657671" stroke-width="1"/>
<line x1="886" y1="731.9166666666667" x2="959.6" y2="731.9166666666667" stroke="#657671" stroke-width="1"/>
<line x1="803.1999999999999" y1="710.8333333333334" x2="876.8000000000001" y2="710.8333333333334" stroke="#657671" stroke-width="1"/>
<line x1="886" y1="710.8333333333334" x2="959.6" y2="710.8333333333334" stroke="#657671" stroke-width="1"/>
<line x1="803.1999999999999" y1="689.75" x2="876.8000000000001" y2="689.75" stroke="#657671" stroke-width="1"/>
<line x1="886" y1="689.75" x2="959.6" y2="689.75" stroke="#657671" stroke-width="1"/>
<line x1="803.1999999999999" y1="668.6666666666667" x2="876.8000000000001" y2="668.6666666666667" stroke="#657671" stroke-width="1"/>
<line x1="886" y1="668.6666666666667" x2="959.6" y2="668.6666666666667" stroke="#657671" stroke-width="1"/>
<line x1="803.1999999999999" y1="647.5833333333334" x2="876.8000000000001" y2="647.5833333333334" stroke="#657671" stroke-width="1"/>
<line x1="886" y1="647.5833333333334" x2="959.6" y2="647.5833333333334" stroke="#657671" stroke-width="1"/>
<line x1="803.1999999999999" y1="626.5" x2="876.8000000000001" y2="626.5" stroke="#657671" stroke-width="1"/>
<line x1="886" y1="626.5" x2="959.6" y2="626.5" stroke="#657671" stroke-width="1"/>
<rect x="794" y="534.5" width="172.5" height="92.0" fill="#d9c5a9" stroke="none" stroke-width="1"/>
<line x1="840" y1="845" x2="840" y2="661" stroke="#285b56" stroke-width="2"/>
<line x1="840" y1="661" x2="830.8000000000001" y2="674.8" stroke="#285b56" stroke-width="2"/>
<line x1="840" y1="661" x2="849.1999999999999" y2="674.8" stroke="#285b56" stroke-width="2"/>
<text x="881.4" y="500" font-family="Helvetica,Arial,sans-serif" font-size="16" fill="#253b38" text-anchor="middle" font-weight="700">ENCLOSED STAIR</text>
<text x="881.4" y="525.3" font-family="Helvetica,Arial,sans-serif" font-size="13" fill="#253b38" text-anchor="middle" font-weight="400">26 equal risers</text>
<rect x="782.5" y="327.5" width="11.5" height="621.0" fill="#253b38" stroke="none" stroke-width="1"/>
<rect x="219.0" y="454.0" width="506.0" height="437.0" fill="#d6dddd" stroke="#285b56" stroke-width="2"/>
<rect x="268.2583333333333" y="476.32916666666665" width="407.48333333333335" height="392.34166666666675" fill="#b6c0c0" stroke="#253b38" stroke-width="1"/>
<rect x="292.6" y="497.7" width="144.9" height="349.6" fill="#ebebe5" stroke="#657671" stroke-width="1"/>
<rect x="312.15" y="621.9000000000001" width="105.79999999999997" height="98.89999999999998" fill="#88a2a0" stroke="none" stroke-width="1"/>
<rect x="506.49999999999994" y="497.7" width="144.89999999999998" height="349.6" fill="#ebebe5" stroke="#657671" stroke-width="1"/>
<rect x="526.05" y="621.9000000000001" width="105.80000000000004" height="98.89999999999998" fill="#88a2a0" stroke="none" stroke-width="1"/>
<rect x="254.64999999999998" y="701.25" width="9.200000000000008" height="11.5" fill="#253b38" stroke="none" stroke-width="1"/>
<rect x="254.64999999999998" y="632.25" width="9.200000000000008" height="11.5" fill="#253b38" stroke="none" stroke-width="1"/>
<rect x="680.15" y="701.25" width="9.199999999999967" height="11.5" fill="#253b38" stroke="none" stroke-width="1"/>
<rect x="680.15" y="632.25" width="9.199999999999967" height="11.5" fill="#253b38" stroke="none" stroke-width="1"/>
<text x="472" y="398.80000000000007" font-family="Helvetica,Arial,sans-serif" font-size="20" fill="#253b38" text-anchor="middle" font-weight="700">2 AT GRADE + 2 IN PIT</text>
<text x="472" y="435.6" font-family="Helvetica,Arial,sans-serif" font-size="15" fill="#253b38" text-anchor="middle" font-weight="400">PIT ALLOWANCE 22&#x27; x 19&#x27;</text>
<text x="472" y="925.5" font-family="Helvetica,Arial,sans-serif" font-size="15" fill="#253b38" text-anchor="middle" font-weight="700">22&#x27;-0&quot; WIDE GARAGE OPENING</text>
<line x1="219" y1="955.4" x2="725" y2="955.4" stroke="#639995" stroke-width="5"/>
<rect x="161.5" y="948.5" width="57.5" height="11.5" fill="#253b38" stroke="none" stroke-width="1"/>
<rect x="725" y="948.5" width="103.5" height="11.5" fill="#253b38" stroke="none" stroke-width="1"/>
<rect x="909" y="948.5" width="57.5" height="11.5" fill="#253b38" stroke="none" stroke-width="1"/>
<line x1="828.5" y1="955.4" x2="909" y2="955.4" stroke="#bfa083" stroke-width="5"/>
<text x="874.5" y="994.5" font-family="Helvetica,Arial,sans-serif" font-size="14" fill="#253b38" text-anchor="middle" font-weight="700">SEPARATE ENTRY</text>
<rect x="731.9" y="362" width="43.69999999999997" height="55.19999999999997" fill="#253b38" stroke="none" stroke-width="1"/>
<text x="616.9000000000001" y="362" font-family="Helvetica,Arial,sans-serif" font-size="13" fill="#253b38" text-anchor="middle" font-weight="400">HYDRAULICS</text>
<line x1="219" y1="895.14" x2="725" y2="895.14" stroke="#b58b40" stroke-width="3"/>
</svg>