<svg xmlns="http://www.w3.org/2000/svg" width="1100" height="1100" viewBox="0 0 1100 1100">
<rect x="0" y="0" width="1100" height="1100" fill="#f7f5ee" stroke="none" stroke-width="1"/>
<text x="80" y="65" font-family="Helvetica,Arial,sans-serif" font-size="20" fill="#657671" text-anchor="start" font-weight="400">GARAGE LOFT 03</text>
<text x="80" y="120" font-family="Helvetica,Arial,sans-serif" font-size="43" fill="#253b38" text-anchor="start" font-weight="700">Upper / game room</text>
<text x="80" y="163" font-family="Helvetica,Arial,sans-serif" font-size="21" fill="#657671" text-anchor="start" font-weight="400">Dimensioned concept / not for construction</text>
<rect x="150" y="316" width="828" height="644" fill="#e8e6dd" stroke="#253b38" stroke-width="2"/>
<rect x="150" y="316" width="11.5" height="644" fill="#253b38" stroke="none" stroke-width="1"/>
<rect x="966.5" y="316" width="11.5" height="644" fill="#253b38" stroke="none" stroke-width="1"/>
<rect x="161.5" y="316" width="805.0" height="11.5" fill="#253b38" stroke="none" stroke-width="1"/>
<line x1="150" y1="270" x2="978" y2="270" stroke="#657671" stroke-width="1"/>
<line x1="150" y1="276.9" x2="150" y2="263.1" stroke="#657671" stroke-width="1"/>
<line x1="978" y1="276.9" x2="978" y2="263.1" stroke="#657671" stroke-width="1"/>
<text x="564" y="257.35" font-family="Helvetica,Arial,sans-serif" font-size="20" fill="#253b38" text-anchor="middle" font-weight="700">36&#x27;-0&quot;</text>
<line x1="117.80000000000001" y1="960" x2="117.80000000000001" y2="316" stroke="#657671" stroke-width="1"/>
<text x="94.80000000000001" y="638" font-family="Helvetica,Arial,sans-serif" font-size="18" fill="#253b38" text-anchor="middle" font-weight="400">28&#x27;</text>
<rect x="794" y="534.5" width="172.5" height="345.0" fill="#ebe3d4" stroke="#657671" stroke-width="1"/>
<line x1="803.1999999999999" y1="879.5" x2="876.8000000000001" y2="879.5" stroke="#657671" stroke-width="1"/>
<line x1="886" y1="879.5" x2="959.6" y2="879.5" stroke="#657671" stroke-width="1"/>
<line x1="803.1999999999999" y1="858.4166666666666" x2="876.8000000000001" y2="858.4166666666666" stroke="#657671" stroke-width="1"/>
<line x1="886" y1="858.4166666666666" x2="959.6" y2="858.4166666666666" stroke="#657671" stroke-width="1"/>
<line x1="803.1999999999999" y1="837.3333333333334" x2="876.8000000000001" y2="837.3333333333334" stroke="#657671" stroke-width="1"/>
<line x1="886" y1="837.3333333333334" x2="959.6" y2="837.3333333333334" stroke="#657671" stroke-width="1"/>
<line x1="803.1999999999999" y1="816.25" x2="876.8000000000001" y2="816.25" stroke="#657671" stroke-width="1"/>
<line x1="886" y1="816.25" x2="959.6" y2="816.25" stroke="#657671" stroke-width="1"/>
<line x1="803.1999999999999" y1="795.1666666666667" x2="876.8000000000001" y2="795.1666666666667" stroke="#657671" stroke-width="1"/>
<line x1="886" y1="795.1666666666667" x2="959.6" y2="795.1666666666667" stroke="#657671" stroke-width="1"/>
<line x1="803.1999999999999" y1="774.0833333333334" x2="876.8000000000001" y2="774.0833333333334" stroke="#657671" stroke-width="1"/>
<line x1="886" y1="774.0833333333334" x2="959.6" y2="774.0833333333334" stroke="#657671" stroke-width="1"/>
<line x1="803.1999999999999" y1="753.0" x2="876.8000000000001" y2="753.0" stroke="#657671" stroke-width="1"/>
<line x1="886" y1="753.0" x2="959.6" y2="753.0" stroke="#657671" stroke-width="1"/>
<line x1="803.1999999999999" y1="731.9166666666667" x2="876.8000000000001" y2="731.9166666666667" stroke="#657671" stroke-width="1"/>
<line x1="886" y1="731.9166666666667" x2="959.6" y2="731.9166666666667" stroke="#657671" stroke-width="1"/>
<line x1="803.1999999999999" y1="710.8333333333334" x2="876.8000000000001" y2="710.8333333333334" stroke="#657671" stroke-width="1"/>
<line x1="886" y1="710.8333333333334" x2="959.6" y2="710.8333333333334" stroke="#657671" stroke-width="1"/>
<line x1="803.1999999999999" y1="689.75" x2="876.8000000000001" y2="689.75" stroke="#657671" stroke-width="1"/>
<line x1="886" y1="689.75" x2="959.6" y2="689.75" stroke="#657671" stroke-width="1"/>
<line x1="803.1999999999999" y1="668.6666666666667" x2="876.8000000000001" y2="668.6666666666667" stroke="#657671" stroke-width="1"/>
<line x1="886" y1="668.6666666666667" x2="959.6" y2="668.6666666666667" stroke="#657671" stroke-width="1"/>
<line x1="803.1999999999999" y1="647.5833333333334" x2="876.8000000000001" y2="647.5833333333334" stroke="#657671" stroke-width="1"/>
<line x1="886" y1="647.5833333333334" x2="959.6" y2="647.5833333333334" stroke="#657671" stroke-width="1"/>
<line x1="803.1999999999999" y1="626.5" x2="876.8000000000001" y2="626.5" stroke="#657671" stroke-width="1"/>
<line x1="886" y1="626.5" x2="959.6" y2="626.5" stroke="#657671" stroke-width="1"/>
<rect x="794" y="534.5" width="172.5" height="92.0" fill="#d9c5a9" stroke="none" stroke-width="1"/>
<line x1="840" y1="845" x2="840" y2="661" stroke="#285b56" stroke-width="2"/>
<line x1="840" y1="661" x2="830.8000000000001" y2="674.8" stroke="#285b56" stroke-width="2"/>
<line x1="840" y1="661" x2="849.1999999999999" y2="674.8" stroke="#285b56" stroke-width="2"/>
<text x="881.4" y="500" font-family="Helvetica,Arial,sans-serif" font-size="16" fill="#253b38" text-anchor="middle" font-weight="700">ENCLOSED STAIR</text>
<text x="881.4" y="525.3" font-family="Helvetica,Arial,sans-serif" font-size="13" fill="#253b38" text-anchor="middle" font-weight="400">26 equal risers</text>
<line x1="173" y1="954.25" x2="771" y2="954.25" stroke="#639995" stroke-width="5"/>
<line x1="155.75" y1="948.5" x2="155.75" y2="477" stroke="#639995" stroke-width="5"/>
<rect x="794" y="948.5" width="172.5" height="11.5" fill="#253b38" stroke="none" stroke-width="1"/>
<rect x="238.16666666666669" y="477.0" width="306.6666666666666" height="391.0" fill="#d5e4db" stroke="#689388" stroke-width="1.5"/>
<rect x="337.45000000000005" y="576.4749999999999" width="108.09999999999998" height="192.05000000000004" fill="#bfa083" stroke="#253b38" stroke-width="1"/>
<rect x="349.3333333333333" y="588.1666666666666" width="84.33333333333336" height="168.66666666666669" fill="#285b56" stroke="none" stroke-width="1"/>
<circle cx="349.3333333333333" cy="756.8333333333333" r="2.99" fill="#253b38" stroke="none" stroke-width="1"/>
<circle cx="349.3333333333333" cy="672.5" r="2.99" fill="#253b38" stroke="none" stroke-width="1"/>
<circle cx="349.3333333333333" cy="588.1666666666666" r="2.99" fill="#253b38" stroke="none" stroke-width="1"/>
<circle cx="433.6666666666667" cy="756.8333333333333" r="2.99" fill="#253b38" stroke="none" stroke-width="1"/>
<circle cx="433.6666666666667" cy="672.5" r="2.99" fill="#253b38" stroke="none" stroke-width="1"/>
<circle cx="433.6666666666667" cy="588.1666666666666" r="2.99" fill="#253b38" stroke="none" stroke-width="1"/>
<text x="391.5" y="451.7" font-family="Helvetica,Arial,sans-serif" font-size="16" fill="#253b38" text-anchor="middle" font-weight="700">13&#x27;-4&quot; x 17&#x27;-0&quot; CUE ZONE</text>
<text x="391.5" y="905.95" font-family="Helvetica,Arial,sans-serif" font-size="15" fill="#253b38" text-anchor="middle" font-weight="700">8 FT POOL TABLE / 58 IN CUES</text>
<rect x="566.3" y="546" width="197.79999999999995" height="236.9" fill="#ded7c9" stroke="none" stroke-width="1"/>
<rect x="715.8000000000001" y="585.0999999999999" width="64.39999999999993" height="173.65" fill="#c4c0ac" stroke="#657671" stroke-width="1"/>
<rect x="622.6500000000001" y="620.75" width="82.79999999999995" height="103.5" fill="#bfa083" stroke="#253b38" stroke-width="1"/>
<text x="658.3" y="506.90000000000003" font-family="Helvetica,Arial,sans-serif" font-size="18" fill="#253b38" text-anchor="middle" font-weight="700">LOUNGE</text>
<rect x="228.2" y="329.80000000000007" width="174.79999999999998" height="52.899999999999935" fill="#bfa083" stroke="#253b38" stroke-width="1"/>
<text x="315.6" y="405.69999999999993" font-family="Helvetica,Arial,sans-serif" font-size="13" fill="#253b38" text-anchor="middle" font-weight="700">REFRESHMENTS</text>
<circle cx="253.5" cy="419.5" r="15.41" fill="#bfa083" stroke="#253b38" stroke-width="1"/>
<circle cx="315.6" cy="419.5" r="15.41" fill="#bfa083" stroke="#253b38" stroke-width="1"/>
<circle cx="377.70000000000005" cy="419.5" r="15.41" fill="#bfa083" stroke="#253b38" stroke-width="1"/>
<rect x="545.5999999999999" y="332.1" width="211.6" height="41.40000000000002" fill="#bfa083" stroke="none" stroke-width="1"/>
<text x="651.4000000000001" y="403.4" font-family="Helvetica,Arial,sans-serif" font-size="15" fill="#253b38" text-anchor="middle" font-weight="700">MEDIA</text>
<rect x="520.3" y="327.5" width="87.39999999999993" height="9.199999999999967" fill="#ffffff" stroke="#285b56" stroke-width="1"/>
<text x="564" y="293" font-family="Helvetica,Arial,sans-serif" font-size="13" fill="#285b56" text-anchor="middle" font-weight="400">HEAT PUMP HEAD</text>
<rect x="842.3000000000001" y="337.85" width="110.39999999999993" height="57.5" fill="#bfa083" stroke="none" stroke-width="1"/>
<text x="897.5" y="421.80000000000007" font-family="Helvetica,Arial,sans-serif" font-size="12" fill="#253b38" text-anchor="middle" font-weight="700">GAMING DESK</text>
<line x1="795.15" y1="879.5" x2="795.15" y2="534.5" stroke="#253b38" stroke-width="3"/>
</svg>